<?xml version="1.0" encoding="UTF-8"?>
<!DOCTYPE svg PUBLIC "-//W3C//DTD SVG 1.1//EN" "http://www.w3.org/Graphics/SVG/1.1/DTD/svg11.dtd">
<svg xmlns="http://www.w3.org/2000/svg" version="1.1" width="608px" height="170px" style="shape-rendering:geometricPrecision; text-rendering:geometricPrecision; image-rendering:optimizeQuality; fill-rule:evenodd; clip-rule:evenodd" xmlns:xlink="http://www.w3.org/1999/xlink">
<g><path style="opacity:0.012" fill="#fefffe" d="M 224.5,3.5 C 225.833,4.16667 225.833,4.16667 224.5,3.5 Z"/></g>
<g><path style="opacity:0.02" fill="#fefffe" d="M 297.5,3.5 C 298.289,3.78281 298.956,4.28281 299.5,5C 298.184,5.52811 297.517,5.02811 297.5,3.5 Z"/></g>
<g><path style="opacity:0.012" fill="#fefffe" d="M 375.5,3.5 C 376.833,4.16667 376.833,4.16667 375.5,3.5 Z"/></g>
<g><path style="opacity:0.827" fill="#fefffe" d="M 316.5,54.5 C 315.587,52.9139 315.587,51.4139 316.5,50C 312.085,39.4089 308.252,28.9089 305,18.5C 303.256,14.4552 300.256,11.7885 296,10.5C 295.517,9.55198 295.351,8.55198 295.5,7.5C 304.167,7.5 312.833,7.5 321.5,7.5C 321.5,8.5 321.5,9.5 321.5,10.5C 317.807,10.1857 315.473,11.8523 314.5,15.5C 318.742,27.015 322.742,39.015 326.5,51.5C 330.541,44.0436 333.208,36.0436 334.5,27.5C 336.624,24.9961 338.29,22.1628 339.5,19C 338.929,17.7949 338.262,16.6283 337.5,15.5C 336.5,17.5 335.5,19.5 334.5,21.5C 333.253,19.9936 333.253,18.4936 334.5,17C 333.062,15.7592 331.562,15.2592 330,15.5C 329.833,15.1667 329.667,14.8333 329.5,14.5C 331.5,13.8333 333.5,13.1667 335.5,12.5C 332.658,11.9955 331.325,10.3289 331.5,7.5C 339.801,7.83232 347.968,7.49899 356,6.5C 356.49,7.79323 356.657,9.12656 356.5,10.5C 353.941,10.3896 351.608,11.0562 349.5,12.5C 352.372,13.7825 355.205,13.7825 358,12.5C 358.667,13.1667 358.667,13.8333 358,14.5C 357.005,15.0659 356.172,15.7326 355.5,16.5C 353.418,16.3321 351.418,16.3321 349.5,16.5C 350.802,18.2012 352.469,19.3678 354.5,20C 353.748,20.6708 353.414,21.5041 353.5,22.5C 352.35,21.1498 351.683,21.3164 351.5,23C 354.235,32.3544 357.402,41.8544 361,51.5C 365.893,39.4875 370.393,27.3208 374.5,15C 374.095,14.0546 373.428,13.3879 372.5,13C 372.833,12.6667 373.167,12.3333 373.5,12C 372.5,11.5 371.5,11 370.5,10.5C 369.212,12.2985 369.212,13.9652 370.5,15.5C 370.208,16.8736 369.875,18.2069 369.5,19.5C 369.5,18.8333 369.167,18.5 368.5,18.5C 368.452,14.1908 368.452,9.85749 368.5,5.5C 372.582,7.34617 376.915,8.01284 381.5,7.5C 381.343,6.12656 381.51,4.79323 382,3.5C 383.119,4.55214 383.619,5.7188 383.5,7C 385.134,7.49351 386.801,7.66018 388.5,7.5C 388.5,8.5 388.5,9.5 388.5,10.5C 385.223,10.4223 382.723,11.7557 381,14.5C 373.955,32.8658 366.955,50.8658 360,68.5C 358.989,67.6634 357.822,67.33 356.5,67.5C 353.599,57.6463 350.099,47.6463 346,37.5C 344.456,40.2636 343.289,40.0969 342.5,37C 343.5,36.1667 344.5,35.3333 345.5,34.5C 344.515,31.8231 343.515,29.1565 342.5,26.5C 337.221,39.8444 332.054,53.1777 327,66.5C 326.072,68.3348 324.906,68.6682 323.5,67.5C 321.905,63.8832 320.405,60.2166 319,56.5C 318.292,55.6195 317.458,54.9528 316.5,54.5 Z"/></g>
<g><path style="opacity:0.077" fill="#fefffe" d="M 477.5,3.5 C 479.337,3.63945 479.67,4.30612 478.5,5.5C 477.702,5.04311 477.369,4.37644 477.5,3.5 Z"/></g>
<g><path style="opacity:0.043" fill="#fefffe" d="M 224.5,4.5 C 223.833,5.16667 223.833,5.16667 224.5,4.5 Z"/></g>
<g><path style="opacity:0.012" fill="#fefffe" d="M 378.5,4.5 C 379.833,5.16667 379.833,5.16667 378.5,4.5 Z"/></g>
<g><path style="opacity:0.948" fill="#fefffe" d="M 59.5,93.5 C 58.1667,93.8333 58.1667,94.1667 59.5,94.5C 59.0825,95.2216 58.4158,95.7216 57.5,96C 57.8333,96.3333 58.1667,96.6667 58.5,97C 54.8812,103.529 52.2145,110.196 50.5,117C 49.6675,118.784 48.6675,118.784 47.5,117C 45.6016,108.621 43.1016,100.121 40,91.5C 33.9514,72.5144 27.4514,53.8477 20.5,35.5C 18.6324,26.3924 15.2991,17.8924 10.5,10C 7.83333,9 5.16667,8 2.5,7C 6.01872,6.62268 9.51872,6.12268 13,5.5C 21.2305,6.67992 29.2305,6.67992 37,5.5C 45.7929,28.8608 54.1262,52.8608 62,77.5C 61.9213,82.9193 61.088,88.2526 59.5,93.5 Z"/></g>
<g><path style="opacity:0.949" fill="#fefffe" d="M 65.5,5.5 C 74.3335,6.82001 83.1668,6.82001 92,5.5C 93.5095,6.08971 95.0095,6.75638 96.5,7.5C 94.8889,12.0589 95.5556,16.2256 98.5,20C 98.1667,20.3333 97.8333,20.6667 97.5,21C 104.339,40.5161 111.006,60.1827 117.5,80C 113.325,93.3403 108.825,106.174 104,118.5C 92.3454,84.5743 80.6787,50.5743 69,16.5C 66.9927,11.1622 63.1594,7.99556 57.5,7C 60.3647,6.8171 63.0314,6.3171 65.5,5.5 Z"/></g>
<g><path style="opacity:0.768" fill="#fefffe" d="M 147.5,13.5 C 145.61,13.2965 144.11,13.9632 143,15.5C 139.284,20.938 136.118,26.6047 133.5,32.5C 135.059,26.2468 135.559,19.9135 135,13.5C 134.502,11.4556 133.335,10.1223 131.5,9.5C 130.158,8.20695 128.491,7.37362 126.5,7C 137.16,5.08252 147.827,5.08252 158.5,7C 155.833,8 153.167,9 150.5,10C 148.937,10.7589 147.937,11.9256 147.5,13.5 Z"/></g>
<g><path style="opacity:0.012" fill="#fefffe" d="M 230.5,5.5 C 231.833,6.16667 231.833,6.16667 230.5,5.5 Z"/></g>
<g><path style="opacity:0.012" fill="#fefffe" d="M 361.5,5.5 C 362.833,6.16667 362.833,6.16667 361.5,5.5 Z"/></g>
<g><path style="opacity:0.022" fill="#fefffe" d="M 387.5,6.5 C 387.897,5.47498 388.563,5.30831 389.5,6C 388.906,6.46434 388.239,6.63101 387.5,6.5 Z"/></g>
<g><path style="opacity:0.857" fill="#fefffe" d="M 423.5,5.5 C 427.847,6.44942 432.014,6.44942 436,5.5C 441.705,8.0219 447.205,11.0219 452.5,14.5C 453.301,17.1334 454.967,18.9667 457.5,20C 457.167,20.3333 456.833,20.6667 456.5,21C 458.41,22.7006 459.577,24.8673 460,27.5C 464.313,43.5662 459.147,55.8996 444.5,64.5C 443.752,67.2952 442.252,67.9619 440,66.5C 435.288,66.8149 430.788,67.8149 426.5,69.5C 425.459,67.0087 424.626,67.0087 424,69.5C 421.463,66.8665 418.297,65.3665 414.5,65C 397.829,54.9867 393.162,40.9867 400.5,23C 405.214,13.9043 412.881,8.07095 423.5,5.5 Z M 448.5,46.5 C 447.167,46.8333 447.167,47.1667 448.5,47.5C 448.071,51.0244 446.571,54.0244 444,56.5C 443.751,55.376 443.251,54.376 442.5,53.5C 441.253,55.0064 441.253,56.5064 442.5,58C 440.97,59.1203 439.303,59.9536 437.5,60.5C 434.564,62.883 432.231,62.5496 430.5,59.5C 429.289,60.2739 429.289,61.1072 430.5,62C 416.388,62.0629 408.721,54.8962 407.5,40.5C 407.79,38.9559 408.456,37.6226 409.5,36.5C 408.585,35.6721 407.919,34.6721 407.5,33.5C 408.178,30.4557 409.011,27.4557 410,24.5C 410.383,23.944 410.883,23.6107 411.5,23.5C 413.351,17.4838 417.351,13.6505 423.5,12C 438.391,10.2936 447.224,16.7936 450,31.5C 451.045,36.7855 450.545,41.7855 448.5,46.5 Z"/></g>
<g><path style="opacity:0.031" fill="#fefffe" d="M 559.5,5.5 C 561.337,5.63945 561.67,6.30612 560.5,7.5C 559.702,7.04311 559.369,6.37644 559.5,5.5 Z"/></g>
<g><path style="opacity:0.012" fill="#fefffe" d="M 574.5,6.5 C 573.833,5.16667 573.833,5.16667 574.5,6.5 Z"/></g>
<g><path style="opacity:0.682" fill="#fefffe" d="M 224.5,120.5 C 225.832,82.7643 225.832,44.931 224.5,7C 225.793,6.50999 227.127,6.34332 228.5,6.5C 228.497,44.3135 228.664,81.9802 229,119.5C 229.333,119.167 229.667,118.833 230,118.5C 231.509,119.09 233.009,119.756 234.5,120.5C 231.02,121.806 227.687,121.806 224.5,120.5 Z"/></g>
<g><path style="opacity:0.024" fill="#fefffe" d="M 323.5,7.5 C 322.833,6.16667 322.833,6.16667 323.5,7.5 Z"/></g>
<g><path style="opacity:0.851" fill="#fefffe" d="M 518.5,11.5 C 519.29,12.4013 520.29,13.0679 521.5,13.5C 521.987,14.4734 522.487,15.4734 523,16.5C 523.893,15.2888 524.726,15.2888 525.5,16.5C 524.624,17.2508 523.624,17.7508 522.5,18C 524.843,25.8873 522.177,32.2207 514.5,37C 515.711,37.8928 515.711,38.7261 514.5,39.5C 512.703,36.9041 511.369,37.2374 510.5,40.5C 516.314,47.4816 522.314,54.3149 528.5,61C 530.888,61.3034 533.055,62.1367 535,63.5C 535.667,64.5 535.667,65.5 535,66.5C 532.868,67.7797 530.702,67.7797 528.5,66.5C 525.59,66.9137 522.923,67.9137 520.5,69.5C 519.289,68.7261 519.289,67.8928 520.5,67C 517.307,62.9732 513.641,59.4732 509.5,56.5C 509.709,55.914 510.043,55.414 510.5,55C 507.301,51.4338 504.467,47.6004 502,43.5C 500.148,39.9233 497.482,38.9233 494,40.5C 493.333,47.1667 493.333,53.8333 494,60.5C 496.8,62.4947 499.967,63.4947 503.5,63.5C 503.67,64.8221 503.337,65.9887 502.5,67C 494.231,67.3768 486.064,67.5435 478,67.5C 476.775,67.1377 475.609,66.6377 474.5,66C 477.124,64.4048 479.124,62.2381 480.5,59.5C 481.192,60.0253 481.692,60.6919 482,61.5C 483.142,59.3213 483.975,56.9879 484.5,54.5C 484.306,42.241 484.14,29.9077 484,17.5C 483.767,12.5947 481.434,10.5947 477,11.5C 476.5,10.5 476,9.5 475.5,8.5C 487.061,7.82349 498.561,7.15682 510,6.5C 512.783,8.38458 515.617,10.0512 518.5,11.5 Z M 500.5,13.5 C 501.756,13.0962 502.923,12.4295 504,11.5C 508.426,13.0905 511.26,16.0905 512.5,20.5C 511.593,23.4212 511.26,26.4212 511.5,29.5C 508.951,30.5091 506.285,31.3425 503.5,32C 503.833,32.3333 504.167,32.6667 504.5,33C 500.848,33.4986 497.182,33.6653 493.5,33.5C 493.334,27.4908 493.501,21.4908 494,15.5C 495.349,12.0437 497.849,10.877 501.5,12C 500.944,12.3826 500.611,12.8826 500.5,13.5 Z"/></g>
<g><path style="opacity:0.839" fill="#fefffe" d="M 577.5,46.5 C 577.167,45.1667 576.833,45.1667 576.5,46.5C 570.582,45.379 564.582,45.2124 558.5,46C 556.139,50.5816 554.473,55.4149 553.5,60.5C 555.289,62.0332 557.289,63.0332 559.5,63.5C 559.5,64.8333 559.5,66.1667 559.5,67.5C 554.595,67.3841 549.595,67.0508 544.5,66.5C 543.483,69.028 542.316,69.028 541,66.5C 540.806,62.9653 542.64,61.2986 546.5,61.5C 550.187,53.4673 553.52,45.134 556.5,36.5C 555.318,34.5331 555.985,33.1997 558.5,32.5C 562.129,22.938 565.629,14.2714 569,6.5C 570.356,7.38017 571.856,7.71351 573.5,7.5C 578.735,21.4092 584.235,35.7425 590,50.5C 591.938,57.2659 596.105,61.9326 602.5,64.5C 603.681,66.198 603.681,67.8647 602.5,69.5C 599.084,67.7742 595.418,66.7742 591.5,66.5C 586.373,66.8814 581.54,67.2148 577,67.5C 575.56,66.0696 575.226,64.403 576,62.5C 578.876,63.3894 581.376,62.5561 583.5,60C 581.961,55.1841 579.961,50.6841 577.5,46.5 Z M 567.5,21.5 C 568.75,21.5774 569.583,22.244 570,23.5C 571.943,29.1194 574.109,34.6194 576.5,40C 571.167,40.6667 565.833,40.6667 560.5,40C 563.289,33.9362 565.623,27.7696 567.5,21.5 Z"/></g>
<g><path style="opacity:0.012" fill="#fefffe" d="M 574.5,6.5 C 575.833,7.16667 575.833,7.16667 574.5,6.5 Z"/></g>
<g><path style="opacity:0.012" fill="#fefffe" d="M -0.5,7.5 C 0.166667,7.5 0.5,7.83333 0.5,8.5C 0.166667,8.16667 -0.166667,7.83333 -0.5,7.5 Z"/></g>
<g><path style="opacity:0.012" fill="#fefffe" d="M 229.5,7.5 C 230.833,8.16667 230.833,8.16667 229.5,7.5 Z"/></g>
<g><path style="opacity:0.034" fill="#fefffe" d="M 323.5,7.5 C 325.337,7.63945 325.67,8.30612 324.5,9.5C 323.702,9.04311 323.369,8.37644 323.5,7.5 Z"/></g>
<g><path style="opacity:0.036" fill="#fefffe" d="M 471.5,7.5 C 473.337,7.63945 473.67,8.30612 472.5,9.5C 471.702,9.04311 471.369,8.37644 471.5,7.5 Z"/></g>
<g><path style="opacity:0.024" fill="#fefffe" d="M 0.5,8.5 C 1.83333,9.16667 1.83333,9.16667 0.5,8.5 Z"/></g>
<g><path style="opacity:0.024" fill="#fefffe" d="M 131.5,9.5 C 130.833,10.1667 130.833,10.1667 131.5,9.5 Z"/></g>
<g><path style="opacity:0.012" fill="#fefffe" d="M 518.5,10.5 C 519.833,11.1667 519.833,11.1667 518.5,10.5 Z"/></g>
<g><path style="opacity:0.012" fill="#fefffe" d="M 559.5,10.5 C 560.833,11.1667 560.833,11.1667 559.5,10.5 Z"/></g>
<g><path style="opacity:0.012" fill="#fefffe" d="M 287.5,11.5 C 289.337,11.6395 289.67,12.3061 288.5,13.5C 287.702,13.0431 287.369,12.3764 287.5,11.5 Z"/></g>
<g><path style="opacity:0.052" fill="#fefffe" d="M 521.5,13.5 C 521.639,11.663 522.306,11.3296 523.5,12.5C 523.043,13.2975 522.376,13.6309 521.5,13.5 Z"/></g>
<g><path style="opacity:0.012" fill="#fefffe" d="M 561.5,12.5 C 561.897,11.475 562.563,11.3083 563.5,12C 562.906,12.4643 562.239,12.631 561.5,12.5 Z"/></g>
<g><path style="opacity:0.024" fill="#fefffe" d="M 322.5,12.5 C 323.833,13.1667 323.833,13.1667 322.5,12.5 Z"/></g>
<g><path style="opacity:0.012" fill="#fefffe" d="M 479.5,12.5 C 480.833,13.1667 480.833,13.1667 479.5,12.5 Z"/></g>
<g><path style="opacity:0.012" fill="#fefffe" d="M 147.5,13.5 C 148.167,13.5 148.5,13.8333 148.5,14.5C 148.167,14.1667 147.833,13.8333 147.5,13.5 Z"/></g>
<g><path style="opacity:0.031" fill="#fefffe" d="M 317.5,13.5 C 318.833,14.1667 318.833,14.1667 317.5,13.5 Z"/></g>
<g><path style="opacity:0.012" fill="#fefffe" d="M 384.5,14.5 C 383.833,13.1667 383.833,13.1667 384.5,14.5 Z"/></g>
<g><path style="opacity:0.012" fill="#fefffe" d="M 384.5,14.5 C 388.837,13.2546 389.17,13.5879 385.5,15.5C 384.893,15.3764 384.56,15.0431 384.5,14.5 Z"/></g>
<g><path style="opacity:0.024" fill="#fefffe" d="M 455.5,13.5 C 457.337,13.6395 457.67,14.3061 456.5,15.5C 455.702,15.0431 455.369,14.3764 455.5,13.5 Z"/></g>
<g><path style="opacity:0.033" fill="#fefffe" d="M 9.5,15.5 C 9.89657,14.475 10.5632,14.3083 11.5,15C 10.9056,15.4643 10.2389,15.631 9.5,15.5 Z"/></g>
<g><path style="opacity:0.031" fill="#fefffe" d="M 148.5,14.5 C 149.833,15.1667 149.833,15.1667 148.5,14.5 Z"/></g>
<g><path style="opacity:0.024" fill="#fefffe" d="M 150.5,14.5 C 151.833,15.1667 151.833,15.1667 150.5,14.5 Z"/></g>
<g><path style="opacity:0.024" fill="#fefffe" d="M 370.5,14.5 C 371.833,15.1667 371.833,15.1667 370.5,14.5 Z"/></g>
<g><path style="opacity:0.012" fill="#fefffe" d="M 472.5,14.5 C 473.833,15.1667 473.833,15.1667 472.5,14.5 Z"/></g>
<g><path style="opacity:0.012" fill="#fefffe" d="M 315.5,15.5 C 316.833,16.1667 316.833,16.1667 315.5,15.5 Z"/></g>
<g><path style="opacity:0.012" fill="#fefffe" d="M 9.5,16.5 C 10.8333,17.1667 10.8333,17.1667 9.5,16.5 Z"/></g>
<g><path style="opacity:0.012" fill="#fefffe" d="M 130.5,16.5 C 131.833,17.1667 131.833,17.1667 130.5,16.5 Z"/></g>
<g><path style="opacity:0.012" fill="#fefffe" d="M 355.5,16.5 C 356.833,17.1667 356.833,17.1667 355.5,16.5 Z"/></g>
<g><path style="opacity:0.012" fill="#fefffe" d="M 371.5,16.5 C 372.525,16.8966 372.692,17.5632 372,18.5C 371.536,17.9056 371.369,17.2389 371.5,16.5 Z"/></g>
<g><path style="opacity:0.012" fill="#fefffe" d="M 67.5,17.5 C 68.8333,18.1667 68.8333,18.1667 67.5,17.5 Z"/></g>
<g><path style="opacity:0.015" fill="#fefffe" d="M 329.5,25.5 C 327.105,22.9083 327.272,20.2417 330,17.5C 329.745,20.0816 329.578,22.7482 329.5,25.5 Z"/></g>
<g><path style="opacity:0.012" fill="#fefffe" d="M 352.5,18.5 C 352.897,17.475 353.563,17.3083 354.5,18C 353.906,18.4643 353.239,18.631 352.5,18.5 Z"/></g>
<g><path style="opacity:0.012" fill="#fefffe" d="M 433.5,17.5 C 435.337,17.6395 435.67,18.3061 434.5,19.5C 433.702,19.0431 433.369,18.3764 433.5,17.5 Z"/></g>
<g><path style="opacity:0.012" fill="#fefffe" d="M 480.5,17.5 C 481.525,17.8966 481.692,18.5632 481,19.5C 480.536,18.9056 480.369,18.2389 480.5,17.5 Z"/></g>
<g><path style="opacity:0.092" fill="#fefffe" d="M 368.5,18.5 C 369.167,18.5 369.5,18.8333 369.5,19.5C 368.806,22.9927 367.473,23.6594 365.5,21.5C 365.868,19.8247 366.868,18.8247 368.5,18.5 Z"/></g>
<g><path style="opacity:0.012" fill="#fefffe" d="M 382.5,18.5 C 383.833,19.1667 383.833,19.1667 382.5,18.5 Z"/></g>
<g><path style="opacity:0.012" fill="#fefffe" d="M 363.5,19.5 C 364.525,19.8966 364.692,20.5632 364,21.5C 363.536,20.9056 363.369,20.2389 363.5,19.5 Z"/></g>
<g><path style="opacity:0.02" fill="#fefffe" d="M 429.5,21.5 C 431.337,21.6395 431.67,22.3061 430.5,23.5C 429.702,23.0431 429.369,22.3764 429.5,21.5 Z"/></g>
<g><path style="opacity:0.012" fill="#fefffe" d="M 353.5,22.5 C 354.833,23.1667 354.833,23.1667 353.5,22.5 Z"/></g>
<g><path style="opacity:0.02" fill="#fefffe" d="M 361.5,25.5 C 360.244,25.5386 359.244,25.0386 358.5,24C 359.833,23.3333 361.167,23.3333 362.5,24C 361.944,24.3826 361.611,24.8826 361.5,25.5 Z"/></g>
<g><path style="opacity:0.042" fill="#fefffe" d="M 411.5,23.5 C 413.337,23.6395 413.67,24.3061 412.5,25.5C 411.702,25.0431 411.369,24.3764 411.5,23.5 Z"/></g>
<g><path style="opacity:0.031" fill="#fefffe" d="M 581.5,23.5 C 582.833,24.1667 582.833,24.1667 581.5,23.5 Z"/></g>
<g><path style="opacity:0.024" fill="#fefffe" d="M 138.5,24.5 C 139.833,25.1667 139.833,25.1667 138.5,24.5 Z"/></g>
<g><path style="opacity:0.012" fill="#fefffe" d="M 364.5,24.5 C 365.833,25.1667 365.833,25.1667 364.5,24.5 Z"/></g>
<g><path style="opacity:0.016" fill="#fefffe" d="M 329.5,25.5 C 330.573,26.2506 330.74,27.2506 330,28.5C 329.517,27.552 329.351,26.552 329.5,25.5 Z"/></g>
<g><path style="opacity:0.012" fill="#fefffe" d="M 357.5,25.5 C 358.833,26.1667 358.833,26.1667 357.5,25.5 Z"/></g>
<g><path style="opacity:0.028" fill="#fefffe" d="M 361.5,25.5 C 362.5,25.5 363.5,25.5 364.5,25.5C 363.26,27.9845 362.26,27.9845 361.5,25.5 Z"/></g>
<g><path style="opacity:0.012" fill="#fefffe" d="M 378.5,30.5 C 377.833,29.1667 377.833,29.1667 378.5,30.5 Z"/></g>
<g><path style="opacity:0.012" fill="#fefffe" d="M 378.5,30.5 C 379.833,31.1667 379.833,31.1667 378.5,30.5 Z"/></g>
<g><path style="opacity:0.012" fill="#fefffe" d="M 375.5,31.5 C 376.833,32.1667 376.833,32.1667 375.5,31.5 Z"/></g>
<g><path style="opacity:0.024" fill="#fefffe" d="M 526.5,32.5 C 525.833,31.1667 525.833,31.1667 526.5,32.5 Z"/></g>
<g><path style="opacity:0.012" fill="#fefffe" d="M 133.5,32.5 C 132.833,33.1667 132.833,33.1667 133.5,32.5 Z"/></g>
<g><path style="opacity:0.012" fill="#fefffe" d="M 394.5,32.5 C 395.833,33.1667 395.833,33.1667 394.5,32.5 Z"/></g>
<g><path style="opacity:0.024" fill="#fefffe" d="M 526.5,32.5 C 527.833,33.1667 527.833,33.1667 526.5,32.5 Z"/></g>
<g><path style="opacity:0.012" fill="#fefffe" d="M 393.5,34.5 C 394.833,35.1667 394.833,35.1667 393.5,34.5 Z"/></g>
<g><path style="opacity:0.027" fill="#fefffe" d="M 20.5,35.5 C 20.631,36.2389 20.4643,36.9056 20,37.5C 19.3083,36.5632 19.475,35.8966 20.5,35.5 Z"/></g>
<g><path style="opacity:0.022" fill="#fefffe" d="M 339.5,37.5 C 339.897,36.475 340.563,36.3083 341.5,37C 340.906,37.4643 340.239,37.631 339.5,37.5 Z"/></g>
<g><path style="opacity:0.019" fill="#fefffe" d="M 325.5,38.5 C 327.898,39.8823 328.065,41.549 326,43.5C 324.481,41.8608 324.314,40.1942 325.5,38.5 Z"/></g>
<g><path style="opacity:0.012" fill="#fefffe" d="M 304.5,40.5 C 305.833,41.1667 305.833,41.1667 304.5,40.5 Z"/></g>
<g><path style="opacity:0.012" fill="#fefffe" d="M 361.5,40.5 C 362.833,41.1667 362.833,41.1667 361.5,40.5 Z"/></g>
<g><path style="opacity:0.012" fill="#fefffe" d="M 59.5,41.5 C 61.337,41.6395 61.6704,42.3061 60.5,43.5C 59.7025,43.0431 59.3691,42.3764 59.5,41.5 Z"/></g>
<g><path style="opacity:0.024" fill="#fefffe" d="M 515.5,41.5 C 516.833,42.1667 516.833,42.1667 515.5,41.5 Z"/></g>
<g><path style="opacity:0.012" fill="#fefffe" d="M 497.5,42.5 C 498.833,43.1667 498.833,43.1667 497.5,42.5 Z"/></g>
<g><path style="opacity:0.012" fill="#fefffe" d="M 590.5,45.5 C 591.833,46.1667 591.833,46.1667 590.5,45.5 Z"/></g>
<g><path style="opacity:0.024" fill="#fefffe" d="M 576.5,46.5 C 576.833,46.5 577.167,46.5 577.5,46.5C 577.315,47.1701 576.981,47.1701 576.5,46.5 Z"/></g>
<g><path style="opacity:0.012" fill="#fefffe" d="M 520.5,49.5 C 521.833,50.1667 521.833,50.1667 520.5,49.5 Z"/></g>
<g><path style="opacity:0.012" fill="#fefffe" d="M 521.5,51.5 C 522.833,52.1667 522.833,52.1667 521.5,51.5 Z"/></g>
<g><path style="opacity:0.039" fill="#fefffe" d="M 577.5,51.5 C 578.376,51.3691 579.043,51.7025 579.5,52.5C 577.192,53.8734 576.525,53.5401 577.5,51.5 Z"/></g>
<g><path style="opacity:0.012" fill="#fefffe" d="M 462.5,53.5 C 461.833,52.1667 461.833,52.1667 462.5,53.5 Z"/></g>
<g><path style="opacity:0.012" fill="#fefffe" d="M 524.5,52.5 C 525.833,53.1667 525.833,53.1667 524.5,52.5 Z"/></g>
<g><path style="opacity:0.012" fill="#fefffe" d="M 305.5,54.5 C 305.897,53.475 306.563,53.3083 307.5,54C 306.906,54.4643 306.239,54.631 305.5,54.5 Z"/></g>
<g><path style="opacity:0.012" fill="#fefffe" d="M 309.5,53.5 C 310.833,54.1667 310.833,54.1667 309.5,53.5 Z"/></g>
<g><path style="opacity:0.012" fill="#fefffe" d="M 462.5,53.5 C 463.833,54.1667 463.833,54.1667 462.5,53.5 Z"/></g>
<g><path style="opacity:0.031" fill="#fefffe" d="M 316.5,54.5 C 315.833,55.1667 315.833,55.1667 316.5,54.5 Z"/></g>
<g><path style="opacity:0.018" fill="#fefffe" d="M 305.5,55.5 C 307.337,55.6395 307.67,56.3061 306.5,57.5C 305.702,57.0431 305.369,56.3764 305.5,55.5 Z"/></g>
<g><path style="opacity:0.018" fill="#fefffe" d="M 315.5,55.5 C 315.361,57.337 314.694,57.6704 313.5,56.5C 313.957,55.7025 314.624,55.3691 315.5,55.5 Z"/></g>
<g><path style="opacity:0.012" fill="#fefffe" d="M 371.5,55.5 C 373.337,55.6395 373.67,56.3061 372.5,57.5C 371.702,57.0431 371.369,56.3764 371.5,55.5 Z"/></g>
<g><path style="opacity:0.012" fill="#fefffe" d="M 545.5,55.5 C 546.833,56.1667 546.833,56.1667 545.5,55.5 Z"/></g>
<g><path style="opacity:0.02" fill="#fefffe" d="M 433.5,57.5 C 434.376,57.3691 435.043,57.7025 435.5,58.5C 433.192,59.8734 432.525,59.5401 433.5,57.5 Z"/></g>
<g><path style="opacity:0.027" fill="#fefffe" d="M 25.5,59.5 C 25.8966,58.475 26.5632,58.3083 27.5,59C 26.9056,59.4643 26.2389,59.631 25.5,59.5 Z"/></g>
<g><path style="opacity:0.012" fill="#fefffe" d="M 601.5,58.5 C 602.833,59.1667 602.833,59.1667 601.5,58.5 Z"/></g>
<g><path style="opacity:0.012" fill="#fefffe" d="M 544.5,59.5 C 545.833,60.1667 545.833,60.1667 544.5,59.5 Z"/></g>
<g><path style="opacity:0.018" fill="#fefffe" d="M 333.5,61.5 C 334.525,61.8966 334.692,62.5632 334,63.5C 333.536,62.9056 333.369,62.2389 333.5,61.5 Z"/></g>
<g><path style="opacity:0.012" fill="#fefffe" d="M 352.5,63.5 C 353.833,64.1667 353.833,64.1667 352.5,63.5 Z"/></g>
<g><path style="opacity:0.012" fill="#fefffe" d="M 448.5,63.5 C 449.833,64.1667 449.833,64.1667 448.5,63.5 Z"/></g>
<g><path style="opacity:0.012" fill="#fefffe" d="M 303.5,64.5 C 304.833,65.1667 304.833,65.1667 303.5,64.5 Z"/></g>
<g><path style="opacity:0.024" fill="#fefffe" d="M 352.5,66.5 C 353.833,67.1667 353.833,67.1667 352.5,66.5 Z"/></g>
<g><path style="opacity:0.012" fill="#fefffe" d="M 329.5,67.5 C 331.337,67.6395 331.67,68.3061 330.5,69.5C 329.702,69.0431 329.369,68.3764 329.5,67.5 Z"/></g>
<g><path style="opacity:0.016" fill="#fefffe" d="M 362.5,67.5 C 363.782,68.7082 363.782,70.0416 362.5,71.5C 361.5,71 360.5,70.5 359.5,70C 361.119,69.7645 362.119,68.9311 362.5,67.5 Z"/></g>
<g><path style="opacity:0.012" fill="#fefffe" d="M 322.5,68.5 C 323.833,69.1667 323.833,69.1667 322.5,68.5 Z"/></g>
<g><path style="opacity:0.012" fill="#fefffe" d="M 357.5,69.5 C 356.833,68.1667 356.833,68.1667 357.5,69.5 Z"/></g>
<g><path style="opacity:0.012" fill="#fefffe" d="M 479.5,69.5 C 479.897,68.475 480.563,68.3083 481.5,69C 480.906,69.4643 480.239,69.631 479.5,69.5 Z"/></g>
<g><path style="opacity:0.012" fill="#fefffe" d="M 540.5,68.5 C 541.833,69.1667 541.833,69.1667 540.5,68.5 Z"/></g>
<g><path style="opacity:0.012" fill="#fefffe" d="M 326.5,70.5 C 325.761,70.631 325.094,70.4643 324.5,70C 325.437,69.3083 326.103,69.475 326.5,70.5 Z"/></g>
<g><path style="opacity:0.024" fill="#fefffe" d="M 357.5,69.5 C 358.525,69.8966 358.692,70.5632 358,71.5C 357.536,70.9056 357.369,70.2389 357.5,69.5 Z"/></g>
<g><path style="opacity:0.012" fill="#fefffe" d="M 415.5,69.5 C 416.833,70.1667 416.833,70.1667 415.5,69.5 Z"/></g>
<g><path style="opacity:0.012" fill="#fefffe" d="M 326.5,70.5 C 327.833,71.1667 327.833,71.1667 326.5,70.5 Z"/></g>
<g><path style="opacity:0.012" fill="#fefffe" d="M 522.5,70.5 C 523.833,71.1667 523.833,71.1667 522.5,70.5 Z"/></g>
<g><path style="opacity:0.012" fill="#fefffe" d="M 600.5,70.5 C 601.833,71.1667 601.833,71.1667 600.5,70.5 Z"/></g>
<g><path style="opacity:0.012" fill="#fefffe" d="M 489.5,71.5 C 491.337,71.6395 491.67,72.3061 490.5,73.5C 489.702,73.0431 489.369,72.3764 489.5,71.5 Z"/></g>
<g><path style="opacity:0.012" fill="#fefffe" d="M 549.5,71.5 C 551.337,71.6395 551.67,72.3061 550.5,73.5C 549.702,73.0431 549.369,72.3764 549.5,71.5 Z"/></g>
<g><path style="opacity:0.012" fill="#fefffe" d="M 258.5,72.5 C 259.833,73.1667 259.833,73.1667 258.5,72.5 Z"/></g>
<g><path style="opacity:0.012" fill="#fefffe" d="M 540.5,72.5 C 541.833,73.1667 541.833,73.1667 540.5,72.5 Z"/></g>
<g><path style="opacity:0.012" fill="#fefffe" d="M 62.5,87.5 C 63.8333,88.1667 63.8333,88.1667 62.5,87.5 Z"/></g>
<g><path style="opacity:0.029" fill="#fefffe" d="M 115.5,89.5 C 116.376,89.3691 117.043,89.7025 117.5,90.5C 115.993,94.3548 115.326,94.0214 115.5,89.5 Z"/></g>
<g><path style="opacity:0.024" fill="#fefffe" d="M 347.5,89.5 C 348.833,90.1667 348.833,90.1667 347.5,89.5 Z"/></g>
<g><path style="opacity:0.024" fill="#fefffe" d="M 392.5,90.5 C 391.833,89.1667 391.833,89.1667 392.5,90.5 Z"/></g>
<g><path style="opacity:0.02" fill="#fefffe" d="M 564.5,90.5 C 565.077,89.2267 565.743,89.2267 566.5,90.5C 566.03,91.463 565.363,91.463 564.5,90.5 Z"/></g>
<g><path style="opacity:0.024" fill="#fefffe" d="M 381.5,90.5 C 382.833,91.1667 382.833,91.1667 381.5,90.5 Z"/></g>
<g><path style="opacity:0.012" fill="#fefffe" d="M 392.5,90.5 C 393.833,91.1667 393.833,91.1667 392.5,90.5 Z"/></g>
<g><path style="opacity:0.012" fill="#fefffe" d="M 564.5,90.5 C 563.833,91.1667 563.833,91.1667 564.5,90.5 Z"/></g>
<g><path style="opacity:0.02" fill="#fefffe" d="M 313.5,91.5 C 315.337,91.6395 315.67,92.3061 314.5,93.5C 313.702,93.0431 313.369,92.3764 313.5,91.5 Z"/></g>
<g><path style="opacity:0.038" fill="#fefffe" d="M 371.5,93.5 C 371.948,91.5354 372.948,91.2021 374.5,92.5C 373.675,93.3857 372.675,93.719 371.5,93.5 Z"/></g>
<g><path style="opacity:0.025" fill="#fefffe" d="M 379.5,91.5 C 380.289,91.7828 380.956,92.2828 381.5,93C 380.184,93.5281 379.517,93.0281 379.5,91.5 Z"/></g>
<g><path style="opacity:0.024" fill="#fefffe" d="M 414.5,91.5 C 415.833,92.1667 415.833,92.1667 414.5,91.5 Z"/></g>
<g><path style="opacity:0.018" fill="#fefffe" d="M 445.5,91.5 C 447.337,91.6395 447.67,92.3061 446.5,93.5C 445.702,93.0431 445.369,92.3764 445.5,91.5 Z"/></g>
<g><path style="opacity:0.012" fill="#fefffe" d="M 475.5,91.5 C 476.833,92.1667 476.833,92.1667 475.5,91.5 Z"/></g>
<g><path style="opacity:0.052" fill="#fefffe" d="M 521.5,91.5 C 523.337,91.6395 523.67,92.3061 522.5,93.5C 521.702,93.0431 521.369,92.3764 521.5,91.5 Z"/></g>
<g><path style="opacity:0.018" fill="#fefffe" d="M 553.5,91.5 C 554.525,91.8966 554.692,92.5632 554,93.5C 553.536,92.9056 553.369,92.2389 553.5,91.5 Z"/></g>
<g><path style="opacity:0.022" fill="#fefffe" d="M 591.5,93.5 C 589.663,93.3605 589.33,92.6939 590.5,91.5C 591.298,91.9569 591.631,92.6236 591.5,93.5 Z"/></g>
<g><path style="opacity:0.018" fill="#fefffe" d="M 594.5,91.5 C 595.675,91.281 596.675,91.6143 597.5,92.5C 595.948,93.7979 594.948,93.4646 594.5,91.5 Z"/></g>
<g><path style="opacity:0.012" fill="#fefffe" d="M 370.5,93.5 C 369.833,92.1667 369.833,92.1667 370.5,93.5 Z"/></g>
<g><path style="opacity:0.012" fill="#fefffe" d="M 59.5,93.5 C 60.8333,94.1667 60.8333,94.1667 59.5,93.5 Z"/></g>
<g><path style="opacity:0.012" fill="#fefffe" d="M 233.5,94.5 C 234.077,93.2267 234.743,93.2267 235.5,94.5C 235.03,95.463 234.363,95.463 233.5,94.5 Z"/></g>
<g><path style="opacity:0.024" fill="#fefffe" d="M 298.5,94.5 C 297.833,93.1667 297.833,93.1667 298.5,94.5 Z"/></g>
<g><path style="opacity:0.012" fill="#fefffe" d="M 299.5,94.5 C 299.897,93.475 300.563,93.3083 301.5,94C 300.906,94.4643 300.239,94.631 299.5,94.5 Z"/></g>
<g><path style="opacity:0.012" fill="#fefffe" d="M 307.5,93.5 C 308.833,94.1667 308.833,94.1667 307.5,93.5 Z"/></g>
<g><path style="opacity:0.024" fill="#fefffe" d="M 341.5,93.5 C 342.833,94.1667 342.833,94.1667 341.5,93.5 Z"/></g>
<g><path style="opacity:0.012" fill="#fefffe" d="M 370.5,93.5 C 370.833,93.5 371.167,93.5 371.5,93.5C 371.315,94.1701 370.981,94.1701 370.5,93.5 Z"/></g>
<g><path style="opacity:0.012" fill="#fefffe" d="M 389.5,93.5 C 390.833,94.1667 390.833,94.1667 389.5,93.5 Z"/></g>
<g><path style="opacity:0.039" fill="#fefffe" d="M 397.5,93.5 C 398.525,93.8966 398.692,94.5632 398,95.5C 397.536,94.9056 397.369,94.2389 397.5,93.5 Z"/></g>
<g><path style="opacity:0.012" fill="#fefffe" d="M 413.5,93.5 C 414.833,94.1667 414.833,94.1667 413.5,93.5 Z"/></g>
<g><path style="opacity:0.012" fill="#fefffe" d="M 419.5,94.5 C 419.897,93.475 420.563,93.3083 421.5,94C 420.906,94.4643 420.239,94.631 419.5,94.5 Z"/></g>
<g><path style="opacity:0.067" fill="#fefffe" d="M 424.5,93.5 C 425.833,94.1667 425.833,94.1667 424.5,93.5 Z"/></g>
<g><path style="opacity:0.012" fill="#fefffe" d="M 557.5,94.5 C 556.761,94.631 556.094,94.4643 555.5,94C 556.437,93.3083 557.103,93.475 557.5,94.5 Z"/></g>
<g><path style="opacity:0.676" fill="#fefffe" d="M 555.5,106.5 C 553.153,102.174 552.153,102.507 552.5,107.5C 553.797,110.498 553.797,113.164 552.5,115.5C 556.304,117.427 555.804,118.427 551,118.5C 549.5,118.167 548,117.833 546.5,117.5C 547.325,116.614 548.325,116.281 549.5,116.5C 550.026,111.588 549.359,106.922 547.5,102.5C 549.679,100.717 549.679,98.7172 547.5,96.5C 549.837,95.4879 552.17,95.6546 554.5,97C 557.294,101.624 560.627,105.791 564.5,109.5C 564.937,106.686 565.27,103.853 565.5,101C 561.464,96.7852 562.464,95.2852 568.5,96.5C 569.167,95.5 569.833,94.5 570.5,93.5C 571.303,96.0545 570.303,97.8878 567.5,99C 568.308,99.3076 568.975,99.8076 569.5,100.5C 567.923,106.651 566.923,112.985 566.5,119.5C 563.81,117.644 561.644,115.311 560,112.5C 557.609,113.602 557.109,112.936 558.5,110.5C 557.479,109.099 556.479,107.765 555.5,106.5 Z"/></g>
<g><path style="opacity:0.674" fill="#fefffe" d="M 591.5,93.5 C 594.897,94.8166 598.23,96.3166 601.5,98C 600.91,99.5095 600.244,101.009 599.5,102.5C 598.5,102 597.5,101.5 596.5,101C 596.833,100.667 597.167,100.333 597.5,100C 595.564,99.187 593.564,98.687 591.5,98.5C 591.5,100.167 591.5,101.833 591.5,103.5C 598.879,104.207 602.213,108.207 601.5,115.5C 598.038,117.787 594.205,119.121 590,119.5C 589.147,117.875 588.147,117.542 587,118.5C 586.186,116.098 586.353,113.765 587.5,111.5C 588.409,113.375 589.743,114.708 591.5,115.5C 592.833,116.833 594.167,116.833 595.5,115.5C 596.586,115.38 597.253,114.713 597.5,113.5C 596.885,111.884 595.885,110.551 594.5,109.5C 593.304,109.846 593.304,110.346 594.5,111C 593.552,111.483 592.552,111.649 591.5,111.5C 591.658,108.478 590.325,106.478 587.5,105.5C 587.461,104.417 587.127,103.417 586.5,102.5C 587.846,99.196 589.513,96.196 591.5,93.5 Z"/></g>
<g><path style="opacity:0.013" fill="#fefffe" d="M 233.5,94.5 C 233.5,95.5 233.5,96.5 233.5,97.5C 230.038,97.1927 230.038,96.1927 233.5,94.5 Z"/></g>
<g><path style="opacity:0.679" fill="#fefffe" d="M 298.5,94.5 C 298.833,94.5 299.167,94.5 299.5,94.5C 301.277,95.6005 303.277,96.4338 305.5,97C 304.584,97.3742 303.75,97.8742 303,98.5C 302.333,100.833 302.333,103.167 303,105.5C 304.667,103.5 306.333,101.5 308,99.5C 308.617,98.5509 308.451,97.7175 307.5,97C 310.122,95.1952 312.789,95.1952 315.5,97C 312.167,99.6667 309.167,102.667 306.5,106C 307.333,106.833 308.167,107.667 309,108.5C 311.391,107.398 311.891,108.064 310.5,110.5C 312.5,113.167 314.833,115.5 317.5,117.5C 314.167,120.167 310.833,120.167 307.5,117.5C 309.929,116.119 309.595,115.119 306.5,114.5C 306.756,112.088 305.756,110.421 303.5,109.5C 302.526,111.743 302.192,114.076 302.5,116.5C 303.675,116.281 304.675,116.614 305.5,117.5C 304.311,118.429 302.978,118.762 301.5,118.5C 300.833,122.5 300.167,122.5 299.5,118.5C 295.299,118.558 294.799,117.558 298,115.5C 298.667,109.833 298.667,104.167 298,98.5C 297.25,97.8742 296.416,97.3742 295.5,97C 297.119,96.7645 298.119,95.9311 298.5,94.5 Z"/></g>
<g><path style="opacity:0.012" fill="#fefffe" d="M 304.5,94.5 C 305.833,95.1667 305.833,95.1667 304.5,94.5 Z"/></g>
<g><path style="opacity:0.024" fill="#fefffe" d="M 522.5,95.5 C 521.833,94.1667 521.833,94.1667 522.5,95.5 Z"/></g>
<g><path style="opacity:0.012" fill="#fefffe" d="M 557.5,94.5 C 558.833,95.1667 558.833,95.1667 557.5,94.5 Z"/></g>
<g><path style="opacity:0.012" fill="#fefffe" d="M 331.5,95.5 C 333.337,95.6395 333.67,96.3061 332.5,97.5C 331.702,97.0431 331.369,96.3764 331.5,95.5 Z"/></g>
<g><path style="opacity:0.024" fill="#fefffe" d="M 336.5,96.5 C 335.833,95.1667 335.833,95.1667 336.5,96.5 Z"/></g>
<g><path style="opacity:0.677" fill="#fefffe" d="M 329.5,107.5 C 330.092,102.634 332.425,98.967 336.5,96.5C 341.584,94.6547 346.25,95.3214 350.5,98.5C 355.766,104.805 355.6,111.138 350,117.5C 348.927,116.72 347.76,116.887 346.5,118C 341.899,118.141 337.399,118.307 333,118.5C 332.508,117.451 332.674,116.451 333.5,115.5C 331.321,113.16 329.987,110.493 329.5,107.5 Z M 339.5,98.5 C 342.216,98.6785 344.883,99.1785 347.5,100C 344.67,102.644 345.004,103.478 348.5,102.5C 350.411,109.686 347.911,114.352 341,116.5C 339.494,114.826 337.661,113.826 335.5,113.5C 335.055,110.635 335.722,108.135 337.5,106C 336.572,105.612 335.905,104.945 335.5,104C 337.005,102.323 338.338,100.489 339.5,98.5 Z"/></g>
<g><path style="opacity:0.701" fill="#fefffe" d="M 387.5,106.5 C 388.097,106.265 388.43,105.765 388.5,105C 388.117,102.036 387.117,99.3695 385.5,97C 388.227,96.1816 390.894,96.3483 393.5,97.5C 391.834,98.9921 390.834,100.825 390.5,103C 390.474,107.467 390.808,111.967 391.5,116.5C 391.113,117.72 390.28,118.387 389,118.5C 385.67,115.336 382.503,112.003 379.5,108.5C 379.048,105.326 378.048,104.993 376.5,107.5C 375.516,110.428 375.183,113.428 375.5,116.5C 379.5,117.167 379.5,117.833 375.5,118.5C 374.833,122.5 374.167,122.5 373.5,118.5C 371.173,118.753 369.173,118.086 367.5,116.5C 369.003,115.948 370.669,115.948 372.5,116.5C 372.239,111.399 372.239,106.399 372.5,101.5C 372.24,99.8129 371.573,98.3129 370.5,97C 372.52,95.7834 374.52,95.6167 376.5,96.5C 379.784,100.769 383.284,104.769 387,108.5C 387.464,107.906 387.631,107.239 387.5,106.5 Z"/></g>
<g><path style="opacity:0.688" fill="#fefffe" d="M 420.5,100.5 C 419.448,98.744 417.781,98.0773 415.5,98.5C 414.488,107.129 416.488,108.295 421.5,102C 422.332,101.312 422.998,101.479 423.5,102.5C 421.458,103.503 421.125,104.837 422.5,106.5C 421.846,108.115 421.346,109.782 421,111.5C 416.207,107.361 414.54,108.694 416,115.5C 417.205,116.071 418.372,116.738 419.5,117.5C 415.833,118.833 412.167,118.833 408.5,117.5C 410.364,115.745 411.364,113.579 411.5,111C 411.268,106.918 411.101,102.751 411,98.5C 410.5,98 410,97.5 409.5,97C 411,96.5 412.5,96 414,95.5C 417.82,96.3873 421.654,96.554 425.5,96C 426.769,98.1385 426.769,100.305 425.5,102.5C 424.468,99.8068 422.802,99.1402 420.5,100.5 Z"/></g>
<g><path style="opacity:0.652" fill="#fefffe" d="M 451.5,109.5 C 449.755,106.597 448.755,106.93 448.5,110.5C 448.84,112.512 449.173,114.512 449.5,116.5C 451.527,116.662 453.527,116.495 455.5,116C 453.729,115.465 453.396,114.631 454.5,113.5C 455.086,113.709 455.586,114.043 456,114.5C 457.133,112.789 458.633,112.289 460.5,113C 459.887,115.147 459.221,117.314 458.5,119.5C 454.567,118.328 450.734,118.328 447,119.5C 445.175,118.897 443.341,118.23 441.5,117.5C 443.104,115.102 444.104,112.435 444.5,109.5C 443.294,106.278 443.294,103.112 444.5,100C 440.526,97.2137 441.193,95.7137 446.5,95.5C 450.539,96.3774 454.372,96.3774 458,95.5C 458.273,97.1012 458.773,98.6012 459.5,100C 459,100.5 458.5,101 458,101.5C 456.559,100.13 454.892,99.13 453,98.5C 451.701,98.9662 450.201,98.9662 448.5,98.5C 448.5,100.833 448.5,103.167 448.5,105.5C 450.912,105.756 452.579,104.756 453.5,102.5C 456.167,105.167 456.167,107.833 453.5,110.5C 452.817,110.137 452.15,109.804 451.5,109.5 Z"/></g>
<g><path style="opacity:0.012" fill="#fefffe" d="M 462.5,95.5 C 463.525,95.8966 463.692,96.5632 463,97.5C 462.536,96.9056 462.369,96.2389 462.5,95.5 Z"/></g>
<g><path style="opacity:0.731" fill="#fefffe" d="M 489.5,116.5 C 488.876,114.246 487.543,112.579 485.5,111.5C 485.672,110.508 485.338,109.842 484.5,109.5C 484.44,108.957 484.107,108.624 483.5,108.5C 482.353,110.765 482.186,113.098 483,115.5C 483.333,115.167 483.667,114.833 484,114.5C 484.645,115.646 485.478,116.646 486.5,117.5C 482.984,119.437 479.317,119.437 475.5,117.5C 476.242,116.713 477.075,116.047 478,115.5C 478.667,110.167 478.667,104.833 478,99.5C 477.167,98.6667 476.333,97.8333 475.5,97C 477.218,96.654 478.885,96.154 480.5,95.5C 484.71,95.9222 488.71,96.9222 492.5,98.5C 493.106,100.709 493.773,102.876 494.5,105C 492.445,105.687 490.779,106.854 489.5,108.5C 491.453,112.12 494.119,115.12 497.5,117.5C 496.672,118.415 495.672,119.081 494.5,119.5C 492.64,118.74 490.973,117.74 489.5,116.5 Z M 482.5,98.5 C 487.096,98.4874 488.763,100.654 487.5,105C 485.866,105.494 484.199,105.66 482.5,105.5C 483.082,103.002 483.082,100.669 482.5,98.5 Z"/></g>
<g><path style="opacity:0.012" fill="#fefffe" d="M 491.5,95.5 C 492.833,96.1667 492.833,96.1667 491.5,95.5 Z"/></g>
<g><path style="opacity:0.012" fill="#fefffe" d="M 522.5,95.5 C 523.833,96.1667 523.833,96.1667 522.5,95.5 Z"/></g>
<g><path style="opacity:0.681" fill="#fefffe" d="M 522.5,96.5 C 522.953,98.5652 523.953,100.232 525.5,101.5C 525.557,102.609 525.89,103.609 526.5,104.5C 525.167,104.833 525.167,105.167 526.5,105.5C 528.14,110.115 530.14,114.115 532.5,117.5C 531.051,118.172 529.718,118.839 528.5,119.5C 523.824,119.543 522.824,117.876 525.5,114.5C 523.304,110.879 520.304,109.879 516.5,111.5C 518.781,118.861 516.448,120.861 509.5,117.5C 510.981,116.52 512.315,115.353 513.5,114C 513.167,113.667 512.833,113.333 512.5,113C 515.79,107.918 518.124,102.418 519.5,96.5C 520.5,96.5 521.5,96.5 522.5,96.5 Z M 519.5,103.5 C 521.727,104.401 522.727,106.067 522.5,108.5C 521.5,108.5 520.5,108.5 519.5,108.5C 519.5,106.833 519.5,105.167 519.5,103.5 Z"/></g>
<g><path style="opacity:0.031" fill="#fefffe" d="M 380.5,97.5 C 381.833,98.1667 381.833,98.1667 380.5,97.5 Z"/></g>
<g><path style="opacity:0.025" fill="#fefffe" d="M 573.5,97.5 C 575.337,97.6395 575.67,98.3061 574.5,99.5C 573.702,99.0431 573.369,98.3764 573.5,97.5 Z"/></g>
<g><path style="opacity:0.012" fill="#fefffe" d="M 233.5,101.5 C 231.775,101.157 231.275,100.157 232,98.5C 233.039,99.2438 233.539,100.244 233.5,101.5 Z"/></g>
<g><path style="opacity:0.012" fill="#fefffe" d="M 602.5,98.5 C 603.833,99.1667 603.833,99.1667 602.5,98.5 Z"/></g>
<g><path style="opacity:0.04" fill="#fefffe" d="M 313.5,99.5 C 315.337,99.6395 315.67,100.306 314.5,101.5C 313.702,101.043 313.369,100.376 313.5,99.5 Z"/></g>
<g><path style="opacity:0.031" fill="#fefffe" d="M 353.5,99.5 C 354.833,100.167 354.833,100.167 353.5,99.5 Z"/></g>
<g><path style="opacity:0.012" fill="#fefffe" d="M 381.5,100.5 C 381.897,99.475 382.563,99.3083 383.5,100C 382.906,100.464 382.239,100.631 381.5,100.5 Z"/></g>
<g><path style="opacity:0.017" fill="#fefffe" d="M 439.5,99.5 C 440.376,99.3691 441.043,99.7025 441.5,100.5C 439.993,104.355 439.326,104.021 439.5,99.5 Z"/></g>
<g><path style="opacity:0.024" fill="#fefffe" d="M 408.5,100.5 C 409.833,101.167 409.833,101.167 408.5,100.5 Z"/></g>
<g><path style="opacity:0.012" fill="#fefffe" d="M 420.5,100.5 C 419.833,101.167 419.833,101.167 420.5,100.5 Z"/></g>
<g><path style="opacity:0.012" fill="#fefffe" d="M 525.5,100.5 C 526.833,101.167 526.833,101.167 525.5,100.5 Z"/></g>
<g><path style="opacity:0.024" fill="#fefffe" d="M 593.5,100.5 C 594.833,101.167 594.833,101.167 593.5,100.5 Z"/></g>
<g><path style="opacity:0.012" fill="#fefffe" d="M 233.5,101.5 C 235.028,101.517 235.528,102.184 235,103.5C 234.283,102.956 233.783,102.289 233.5,101.5 Z"/></g>
<g><path style="opacity:0.012" fill="#fefffe" d="M 403.5,101.5 C 405.337,101.639 405.67,102.306 404.5,103.5C 403.702,103.043 403.369,102.376 403.5,101.5 Z"/></g>
<g><path style="opacity:0.012" fill="#fefffe" d="M 473.5,101.5 C 474.833,102.167 474.833,102.167 473.5,101.5 Z"/></g>
<g><path style="opacity:0.012" fill="#fefffe" d="M 238.5,102.5 C 239.833,103.167 239.833,103.167 238.5,102.5 Z"/></g>
<g><path style="opacity:0.012" fill="#fefffe" d="M 427.5,102.5 C 428.833,103.167 428.833,103.167 427.5,102.5 Z"/></g>
<g><path style="opacity:0.022" fill="#fefffe" d="M 459.5,103.5 C 459.897,102.475 460.563,102.308 461.5,103C 460.906,103.464 460.239,103.631 459.5,103.5 Z"/></g>
<g><path style="opacity:0.012" fill="#fefffe" d="M 573.5,102.5 C 574.833,103.167 574.833,103.167 573.5,102.5 Z"/></g>
<g><path style="opacity:0.018" fill="#fefffe" d="M 511.5,105.5 C 511.897,104.475 512.563,104.308 513.5,105C 512.906,105.464 512.239,105.631 511.5,105.5 Z"/></g>
<g><path style="opacity:0.012" fill="#fefffe" d="M 526.5,104.5 C 527.833,105.167 527.833,105.167 526.5,104.5 Z"/></g>
<g><path style="opacity:0.03" fill="#fefffe" d="M 41.5,105.5 C 43.9732,105.947 44.1399,106.947 42,108.5C 41.5172,107.552 41.3505,106.552 41.5,105.5 Z"/></g>
<g><path style="opacity:0.018" fill="#fefffe" d="M 234.5,105.5 C 235.525,105.897 235.692,106.563 235,107.5C 234.536,106.906 234.369,106.239 234.5,105.5 Z"/></g>
<g><path style="opacity:0.012" fill="#fefffe" d="M 296.5,105.5 C 297.833,106.167 297.833,106.167 296.5,105.5 Z"/></g>
<g><path style="opacity:0.029" fill="#fefffe" d="M 315.5,105.5 C 317.337,105.639 317.67,106.306 316.5,107.5C 315.702,107.043 315.369,106.376 315.5,105.5 Z"/></g>
<g><path style="opacity:0.012" fill="#fefffe" d="M 387.5,106.5 C 386.761,106.631 386.094,106.464 385.5,106C 386.437,105.308 387.103,105.475 387.5,106.5 Z"/></g>
<g><path style="opacity:0.012" fill="#fefffe" d="M 543.5,105.5 C 545.337,105.639 545.67,106.306 544.5,107.5C 543.702,107.043 543.369,106.376 543.5,105.5 Z"/></g>
<g><path style="opacity:0.017" fill="#fefffe" d="M 587.5,105.5 C 587.361,107.337 586.694,107.67 585.5,106.5C 585.957,105.702 586.624,105.369 587.5,105.5 Z"/></g>
<g><path style="opacity:0.012" fill="#fefffe" d="M 97.5,106.5 C 98.8333,107.167 98.8333,107.167 97.5,106.5 Z"/></g>
<g><path style="opacity:0.012" fill="#fefffe" d="M 328.5,107.5 C 327.833,106.167 327.833,106.167 328.5,107.5 Z"/></g>
<g><path style="opacity:0.012" fill="#fefffe" d="M 555.5,106.5 C 554.833,107.167 554.833,107.167 555.5,106.5 Z"/></g>
<g><path style="opacity:0.012" fill="#fefffe" d="M 238.5,107.5 C 239.833,108.167 239.833,108.167 238.5,107.5 Z"/></g>
<g><path style="opacity:0.012" fill="#fefffe" d="M 328.5,107.5 C 328.833,107.5 329.167,107.5 329.5,107.5C 329.315,108.17 328.981,108.17 328.5,107.5 Z"/></g>
<g><path style="opacity:0.012" fill="#fefffe" d="M 379.5,108.5 C 378.833,109.167 378.833,109.167 379.5,108.5 Z"/></g>
<g><path style="opacity:0.024" fill="#fefffe" d="M 293.5,109.5 C 295.983,109.73 296.483,110.397 295,111.5C 293.97,111.164 293.47,110.497 293.5,109.5 Z"/></g>
<g><path style="opacity:0.012" fill="#fefffe" d="M 317.5,110.5 C 317.897,109.475 318.563,109.308 319.5,110C 318.906,110.464 318.239,110.631 317.5,110.5 Z"/></g>
<g><path style="opacity:0.02" fill="#fefffe" d="M 341.5,109.5 C 343.337,109.639 343.67,110.306 342.5,111.5C 341.702,111.043 341.369,110.376 341.5,109.5 Z"/></g>
<g><path style="opacity:0.012" fill="#fefffe" d="M 431.5,109.5 C 433.337,109.639 433.67,110.306 432.5,111.5C 431.702,111.043 431.369,110.376 431.5,109.5 Z"/></g>
<g><path style="opacity:0.025" fill="#fefffe" d="M 451.5,109.5 C 451.361,111.337 450.694,111.67 449.5,110.5C 449.957,109.702 450.624,109.369 451.5,109.5 Z"/></g>
<g><path style="opacity:0.04" fill="#fefffe" d="M 461.5,109.5 C 463.337,109.639 463.67,110.306 462.5,111.5C 461.702,111.043 461.369,110.376 461.5,109.5 Z"/></g>
<g><path style="opacity:0.012" fill="#fefffe" d="M 484.5,109.5 C 483.833,110.167 483.833,110.167 484.5,109.5 Z"/></g>
<g><path style="opacity:0.024" fill="#fefffe" d="M 493.5,109.5 C 494.833,110.167 494.833,110.167 493.5,109.5 Z"/></g>
<g><path style="opacity:0.012" fill="#fefffe" d="M 223.5,110.5 C 224.833,111.167 224.833,111.167 223.5,110.5 Z"/></g>
<g><path style="opacity:0.067" fill="#fefffe" d="M 493.5,110.5 C 492.833,111.167 492.833,111.167 493.5,110.5 Z"/></g>
<g><path style="opacity:0.012" fill="#fefffe" d="M 314.5,111.5 C 315.833,112.167 315.833,112.167 314.5,111.5 Z"/></g>
<g><path style="opacity:0.012" fill="#fefffe" d="M 485.5,111.5 C 485.103,112.525 484.437,112.692 483.5,112C 484.094,111.536 484.761,111.369 485.5,111.5 Z"/></g>
<g><path style="opacity:0.024" fill="#fefffe" d="M 494.5,111.5 C 495.833,112.167 495.833,112.167 494.5,111.5 Z"/></g>
<g><path style="opacity:0.012" fill="#fefffe" d="M 532.5,111.5 C 533.833,112.167 533.833,112.167 532.5,111.5 Z"/></g>
<g><path style="opacity:0.024" fill="#fefffe" d="M 537.5,111.5 C 539.337,111.639 539.67,112.306 538.5,113.5C 537.702,113.043 537.369,112.376 537.5,111.5 Z"/></g>
<g><path style="opacity:0.043" fill="#fefffe" d="M 604.5,111.5 C 605.833,112.167 605.833,112.167 604.5,111.5 Z"/></g>
<g><path style="opacity:0.012" fill="#fefffe" d="M 417.5,112.5 C 418.833,113.167 418.833,113.167 417.5,112.5 Z"/></g>
<g><path style="opacity:0.024" fill="#fefffe" d="M 604.5,112.5 C 605.562,113.575 605.562,114.575 604.5,115.5C 603.224,114.386 603.224,113.386 604.5,112.5 Z"/></g>
<g><path style="opacity:0.024" fill="#fefffe" d="M 554.5,113.5 C 555.833,114.167 555.833,114.167 554.5,113.5 Z"/></g>
<g><path style="opacity:0.018" fill="#fefffe" d="M 583.5,113.5 C 585.337,113.639 585.67,114.306 584.5,115.5C 583.702,115.043 583.369,114.376 583.5,113.5 Z"/></g>
<g><path style="opacity:0.012" fill="#fefffe" d="M 306.5,114.5 C 305.833,115.167 305.833,115.167 306.5,114.5 Z"/></g>
<g><path style="opacity:0.012" fill="#fefffe" d="M 378.5,114.5 C 379.833,115.167 379.833,115.167 378.5,114.5 Z"/></g>
<g><path style="opacity:0.012" fill="#fefffe" d="M 439.5,114.5 C 440.833,115.167 440.833,115.167 439.5,114.5 Z"/></g>
<g><path style="opacity:0.012" fill="#fefffe" d="M 591.5,114.5 C 592.833,115.167 592.833,115.167 591.5,114.5 Z"/></g>
<g><path style="opacity:0.012" fill="#fefffe" d="M 595.5,115.5 C 594.833,114.167 594.833,114.167 595.5,115.5 Z"/></g>
<g><path style="opacity:0.012" fill="#fefffe" d="M 504.5,115.5 C 505.833,116.167 505.833,116.167 504.5,115.5 Z"/></g>
<g><path style="opacity:0.012" fill="#fefffe" d="M 520.5,116.5 C 519.833,115.167 519.833,115.167 520.5,116.5 Z"/></g>
<g><path style="opacity:0.037" fill="#fefffe" d="M 540.5,115.5 C 541.675,115.281 542.675,115.614 543.5,116.5C 541.948,117.798 540.948,117.465 540.5,115.5 Z"/></g>
<g><path style="opacity:0.012" fill="#fefffe" d="M 601.5,115.5 C 602.167,115.5 602.5,115.833 602.5,116.5C 602.167,116.167 601.833,115.833 601.5,115.5 Z"/></g>
<g><path style="opacity:0.012" fill="#fefffe" d="M 607.5,115.5 C 607.5,115.833 607.5,116.167 607.5,116.5C 606.83,116.019 606.83,115.685 607.5,115.5 Z"/></g>
<g><path style="opacity:0.012" fill="#fefffe" d="M 353.5,116.5 C 354.833,117.167 354.833,117.167 353.5,116.5 Z"/></g>
<g><path style="opacity:0.024" fill="#fefffe" d="M 489.5,116.5 C 488.833,117.167 488.833,117.167 489.5,116.5 Z"/></g>
<g><path style="opacity:0.012" fill="#fefffe" d="M 504.5,116.5 C 503.833,117.167 503.833,117.167 504.5,116.5 Z"/></g>
<g><path style="opacity:0.024" fill="#fefffe" d="M 520.5,116.5 C 521.833,117.167 521.833,117.167 520.5,116.5 Z"/></g>
<g><path style="opacity:0.031" fill="#fefffe" d="M 602.5,116.5 C 603.833,117.167 603.833,117.167 602.5,116.5 Z"/></g>
<g><path style="opacity:0.012" fill="#fefffe" d="M 606.5,116.5 C 605.833,117.167 605.833,117.167 606.5,116.5 Z"/></g>
<g><path style="opacity:0.012" fill="#fefffe" d="M 328.5,117.5 C 329.833,118.167 329.833,118.167 328.5,117.5 Z"/></g>
<g><path style="opacity:0.012" fill="#fefffe" d="M 581.5,117.5 C 583.337,117.639 583.67,118.306 582.5,119.5C 581.702,119.043 581.369,118.376 581.5,117.5 Z"/></g>
<g><path style="opacity:0.012" fill="#fefffe" d="M 328.5,118.5 C 327.833,119.167 327.833,119.167 328.5,118.5 Z"/></g>
<g><path style="opacity:0.031" fill="#fefffe" d="M 50.5,120.5 C 49.8333,119.167 49.8333,119.167 50.5,120.5 Z"/></g>
<g><path style="opacity:0.031" fill="#fefffe" d="M 224.5,120.5 C 223.833,119.167 223.833,119.167 224.5,120.5 Z"/></g>
<g><path style="opacity:0.015" fill="#fefffe" d="M 387.5,119.5 C 389.337,119.639 389.67,120.306 388.5,121.5C 387.702,121.043 387.369,120.376 387.5,119.5 Z"/></g>
<g><path style="opacity:0.031" fill="#fefffe" d="M 393.5,119.5 C 395.337,119.639 395.67,120.306 394.5,121.5C 393.702,121.043 393.369,120.376 393.5,119.5 Z"/></g>
<g><path style="opacity:0.029" fill="#fefffe" d="M 475.5,119.5 C 477.337,119.639 477.67,120.306 476.5,121.5C 475.702,121.043 475.369,120.376 475.5,119.5 Z"/></g>
<g><path style="opacity:0.012" fill="#fefffe" d="M 492.5,120.5 C 491.833,119.167 491.833,119.167 492.5,120.5 Z"/></g>
<g><path style="opacity:0.012" fill="#fefffe" d="M 528.5,119.5 C 529.833,120.167 529.833,120.167 528.5,119.5 Z"/></g>
<g><path style="opacity:0.012" fill="#fefffe" d="M 596.5,120.5 C 595.833,119.167 595.833,119.167 596.5,120.5 Z"/></g>
<g><path style="opacity:0.012" fill="#fefffe" d="M 50.5,120.5 C 51.8333,121.167 51.8333,121.167 50.5,120.5 Z"/></g>
<g><path style="opacity:0.024" fill="#fefffe" d="M 295.5,120.5 C 296.833,121.167 296.833,121.167 295.5,120.5 Z"/></g>
<g><path style="opacity:0.012" fill="#fefffe" d="M 327.5,120.5 C 328.833,121.167 328.833,121.167 327.5,120.5 Z"/></g>
<g><path style="opacity:0.012" fill="#fefffe" d="M 413.5,120.5 C 414.833,121.167 414.833,121.167 413.5,120.5 Z"/></g>
<g><path style="opacity:0.031" fill="#fefffe" d="M 492.5,120.5 C 493.833,121.167 493.833,121.167 492.5,120.5 Z"/></g>
<g><path style="opacity:0.024" fill="#fefffe" d="M 596.5,120.5 C 597.833,121.167 597.833,121.167 596.5,120.5 Z"/></g>
<g><path style="opacity:0.56" fill="#fefffe" d="M 361.5,141.5 C 362.833,141.5 364.167,141.5 365.5,141.5C 365.5,142.833 365.5,144.167 365.5,145.5C 364.167,145.5 362.833,145.5 361.5,145.5C 361.5,144.167 361.5,142.833 361.5,141.5 Z"/></g>
<g><path style="opacity:0.895" fill="#fefffe" d="M 377.5,141.5 C 378.5,141.5 379.5,141.5 380.5,141.5C 380.334,148.508 380.5,155.508 381,162.5C 384.056,164.039 383.556,164.705 379.5,164.5C 375.81,165.049 374.976,164.049 377,161.5C 377.667,156.167 377.667,150.833 377,145.5C 376.25,144.874 375.416,144.374 374.5,144C 375.571,143.148 376.571,142.315 377.5,141.5 Z"/></g>
<g><path style="opacity:0.707" fill="#fefffe" d="M 393.5,141.5 C 394.5,141.5 395.5,141.5 396.5,141.5C 395.889,149.278 396.556,156.778 398.5,164C 395.833,164.667 393.167,164.667 390.5,164C 391.783,160.936 392.45,157.603 392.5,154C 392.416,150.307 391.75,146.807 390.5,143.5C 391.602,142.824 392.602,142.158 393.5,141.5 Z"/></g>
<g><path style="opacity:0.597" fill="#fefffe" d="M 408.5,141.5 C 410.359,141.461 411.692,142.294 412.5,144C 408.834,146.3 407.501,145.466 408.5,141.5 Z"/></g>
<g><path style="opacity:0.707" fill="#fefffe" d="M 560.5,141.5 C 561.5,141.5 562.5,141.5 563.5,141.5C 563.334,148.508 563.5,155.508 564,162.5C 564.5,163 565,163.5 565.5,164C 562.833,164.667 560.167,164.667 557.5,164C 558.783,160.936 559.45,157.603 559.5,154C 559.45,150.397 558.783,147.064 557.5,144C 558.571,143.148 559.571,142.315 560.5,141.5 Z"/></g>
<g><path style="opacity:0.635" fill="#fefffe" d="M 575.5,141.5 C 577.346,141.222 578.68,141.889 579.5,143.5C 578.68,145.111 577.346,145.778 575.5,145.5C 575.5,144.167 575.5,142.833 575.5,141.5 Z"/></g>
<g><path style="opacity:0.74" fill="#fefffe" d="M 323.5,142.5 C 326.119,142.232 328.619,142.565 331,143.5C 333.333,148.5 335.667,153.5 338,158.5C 340.167,153.5 342.333,148.5 344.5,143.5C 347.167,142.167 349.833,142.167 352.5,143.5C 351.675,144.386 350.675,144.719 349.5,144.5C 349.334,150.509 349.501,156.509 350,162.5C 350.75,163.126 351.584,163.626 352.5,164C 349.167,164.667 345.833,164.667 342.5,164C 343.333,163.167 344.167,162.333 345,161.5C 345.667,157.5 345.667,153.5 345,149.5C 342.56,154.718 339.893,159.718 337,164.5C 334.107,159.718 331.44,154.718 329,149.5C 328.333,153.5 328.333,157.5 329,161.5C 329.903,162.701 331.069,163.535 332.5,164C 329.5,164.667 326.5,164.667 323.5,164C 324.416,163.626 325.25,163.126 326,162.5C 326.499,156.509 326.666,150.509 326.5,144.5C 324.821,144.715 323.821,144.048 323.5,142.5 Z"/></g>
<g><path style="opacity:0.732" fill="#fefffe" d="M 492.5,142.5 C 495.898,142.18 499.232,142.513 502.5,143.5C 501.689,144.216 501.022,145.05 500.5,146C 501.624,148.411 503.124,150.578 505,152.5C 506.626,150.083 508.126,147.583 509.5,145C 508.692,144.692 508.025,144.192 507.5,143.5C 515.477,141.645 516.643,142.979 511,147.5C 509.333,150.167 507.667,152.833 506,155.5C 505.333,157.833 505.333,160.167 506,162.5C 506.75,163.126 507.584,163.626 508.5,164C 505.167,164.667 501.833,164.667 498.5,164C 499.416,163.626 500.25,163.126 501,162.5C 501.667,160.167 501.667,157.833 501,155.5C 498.63,150.731 495.796,146.398 492.5,142.5 Z"/></g>
<g><path style="opacity:0.761" fill="#fefffe" d="M 361.5,149.5 C 362.833,149.5 364.167,149.5 365.5,149.5C 364.926,154.648 365.593,159.482 367.5,164C 364.833,164.667 362.167,164.667 359.5,164C 360.733,162.302 361.4,160.302 361.5,158C 361.346,155.621 360.68,153.454 359.5,151.5C 360.243,150.818 360.909,150.151 361.5,149.5 Z"/></g>
<g><path style="opacity:0.804" fill="#fefffe" d="M 407.5,149.5 C 408.833,149.5 410.167,149.5 411.5,149.5C 411.334,153.846 411.501,158.179 412,162.5C 412.5,163 413,163.5 413.5,164C 410.833,164.667 408.167,164.667 405.5,164C 406.667,163.5 407.5,162.667 408,161.5C 408.667,158.833 408.667,156.167 408,153.5C 404.937,152.325 404.77,150.991 407.5,149.5 Z"/></g>
<g><path style="opacity:0.655" fill="#fefffe" d="M 435.5,149.5 C 437.924,149.192 440.257,149.526 442.5,150.5C 441.787,153.252 442.287,155.918 444,158.5C 445.544,156.532 446.711,154.365 447.5,152C 446.692,151.692 446.025,151.192 445.5,150.5C 447.5,149.167 449.5,149.167 451.5,150.5C 448.689,155.1 446.355,159.933 444.5,165C 443.668,165.688 443.002,165.521 442.5,164.5C 440.412,159.327 438.079,154.327 435.5,149.5 Z"/></g>
<g><path style="opacity:0.746" fill="#fefffe" d="M 461.5,149.5 C 464.187,149.336 466.854,149.503 469.5,150C 471.155,151.444 471.822,153.278 471.5,155.5C 468.15,155.335 464.817,155.502 461.5,156C 463.375,162.094 466.542,162.927 471,158.5C 471.171,164.313 468.338,166.48 462.5,165C 457.501,160.149 457.167,154.982 461.5,149.5 Z M 463.5,151.5 C 465.346,151.222 466.68,151.889 467.5,153.5C 465.833,154.833 464.167,154.833 462.5,153.5C 462.863,152.817 463.196,152.15 463.5,151.5 Z"/></g>
<g><path style="opacity:0.752" fill="#fefffe" d="M 522.5,149.5 C 525.187,149.336 527.854,149.503 530.5,150C 532.155,151.444 532.822,153.278 532.5,155.5C 529.102,155.18 525.768,155.513 522.5,156.5C 524.705,162.178 527.872,162.845 532,158.5C 532.171,164.313 529.338,166.48 523.5,165C 518.587,160.114 518.254,154.947 522.5,149.5 Z M 524.5,151.5 C 526.346,151.222 527.68,151.889 528.5,153.5C 526.579,154.641 524.579,154.808 522.5,154C 523.381,153.292 524.047,152.458 524.5,151.5 Z"/></g>
<g><path style="opacity:0.725" fill="#fefffe" d="M 541.5,149.5 C 543.979,150.072 546.313,150.072 548.5,149.5C 551.876,150.229 552.209,151.562 549.5,153.5C 548.28,152.289 547.113,152.289 546,153.5C 544.977,157.317 545.477,160.817 547.5,164C 544.833,164.667 542.167,164.667 539.5,164C 540.733,162.302 541.4,160.302 541.5,158C 541.346,155.621 540.68,153.454 539.5,151.5C 540.243,150.818 540.909,150.151 541.5,149.5 Z"/></g>
<g><path style="opacity:0.821" fill="#fefffe" d="M 575.5,149.5 C 576.5,149.5 577.5,149.5 578.5,149.5C 578.335,153.182 578.501,156.848 579,160.5C 579.318,162.061 580.151,163.228 581.5,164C 578.833,164.667 576.167,164.667 573.5,164C 574,163.5 574.5,163 575,162.5C 575.498,159.183 575.665,155.85 575.5,152.5C 574.325,152.719 573.325,152.386 572.5,151.5C 573.602,150.824 574.602,150.158 575.5,149.5 Z"/></g>
</svg>
